<?xml version="1.0" ?><!-- Uploaded to: SVG Repo, www.svgrepo.com, Generator: SVG Repo Mixer Tools -->
<svg width="800px" height="800px" viewBox="0 0 2050 2050" data-name="Layer 2" id="Layer_2" xmlns="http://www.w3.org/2000/svg"><defs><style>.cls-1{fill:#c8c2e9;}.cls-2{fill:#4d4c78;}.cls-3{fill:#ffffff;}.cls-4{fill:#8a87b2;}.cls-5{fill:#323150;}.cls-6{fill:#64639c;}.cls-7{fill:#dfdafd;}.cls-8{fill:#67baeb;}.cls-9{fill:#f4c23f;}.cls-10{fill:#f44533;}.cls-11{fill:#b11a31;}.cls-12{fill:#f4a93f;}.cls-13{fill:#46a1f8;}.cls-14{fill:#fad564;}</style></defs><title/><rect class="cls-1" height="1528.11" rx="172.5" ry="172.5" width="1832.6" x="80.3" y="260.9"/><path class="cls-2" d="M1912.9,497.2V433.5c0-95.3-77.2-172.6-172.5-172.6H252.8c-95.3,0-172.5,77.3-172.5,172.6v63.7Z"/><circle class="cls-3" cx="228.7" cy="380.9" r="35"/><circle class="cls-3" cx="353.5" cy="380.9" r="35"/><circle class="cls-3" cx="478.3" cy="380.9" r="35"/><path class="cls-4" d="M1826.5,1703.7H338.9c-95.3,0-172.6-77.3-172.6-172.5V348.1a171.6,171.6,0,0,1,15.8-72A172.5,172.5,0,0,0,80.3,433.5v1183c0,95.3,77.2,172.6,172.5,172.6H1740.4a172.5,172.5,0,0,0,156.8-100.6A170.5,170.5,0,0,1,1826.5,1703.7Z"/><path class="cls-5" d="M166.3,348.1a171.6,171.6,0,0,1,15.8-72A172.5,172.5,0,0,0,80.3,433.5v63.7h86Z"/><rect class="cls-6" height="154.97" rx="77.5" ry="77.5" width="466.3" x="1309.1" y="260.9"/><rect class="cls-7" height="646.26" rx="97.3" ry="97.3" width="194.7" x="1718.3" y="664.7"/><rect class="cls-8" height="332.48" rx="50" ry="50" transform="translate(871.4 -459.4) rotate(45)" width="332.5" x="824" y="656"/><rect class="cls-9" height="332.48" rx="50" ry="50" transform="translate(1146.1 -573.2) rotate(45)" width="332.5" x="1098.7" y="930.6"/><rect class="cls-9" height="332.48" rx="50" ry="50" transform="translate(986.4 -181.8) rotate(45)" width="332.5" x="546.4" y="933.6"/><rect class="cls-8" height="332.48" rx="50" ry="50" transform="translate(1261.1 -295.5) rotate(45)" width="332.5" x="821.1" y="1208.3"/><rect class="cls-10" height="332.48" rx="50" ry="50" transform="translate(871.4 -459.4) rotate(45)" width="332.5" x="824" y="656"/><rect class="cls-9" height="332.48" rx="50" ry="50" transform="translate(1146.1 -573.2) rotate(45)" width="332.5" x="1098.7" y="930.6"/><rect class="cls-10" height="332.48" rx="50" ry="50" transform="translate(1261.1 -295.5) rotate(45)" width="332.5" x="821.1" y="1208.3"/><path class="cls-11" d="M1012.6,1021.9,848.2,857.5a50,50,0,0,1,0-70.7l164.4-164.4a54.7,54.7,0,0,1,6.5-5.4,50,50,0,0,0-64.2,5.4L790.5,786.8a49.9,49.9,0,0,0,0,70.7l164.4,164.4a50,50,0,0,0,64.2,5.5A47.4,47.4,0,0,1,1012.6,1021.9Z"/><path class="cls-12" d="M1287.3,1296.6l-164.4-164.4a50,50,0,0,1,0-70.7l164.4-164.4a54.7,54.7,0,0,1,6.5-5.4,50,50,0,0,0-64.3,5.4l-164.3,164.4a49.9,49.9,0,0,0,0,70.7l164.3,164.4a50.2,50.2,0,0,0,64.3,5.5A47.4,47.4,0,0,1,1287.3,1296.6Z"/><path class="cls-12" d="M735,1299.6,570.6,1135.2a50,50,0,0,1,0-70.7L735,900.1a47.4,47.4,0,0,1,6.5-5.5,50.2,50.2,0,0,0-64.3,5.5L512.9,1064.5a49.9,49.9,0,0,0,0,70.7l164.3,164.4a50.1,50.1,0,0,0,64.3,5.4A54.7,54.7,0,0,1,735,1299.6Z"/><path class="cls-11" d="M1009.7,1574.2,845.3,1409.8a50,50,0,0,1,0-70.7l164.4-164.3a47.4,47.4,0,0,1,6.5-5.5,50,50,0,0,0-64.3,5.5L787.5,1339.1a50,50,0,0,0,0,70.7l164.4,164.4a50.2,50.2,0,0,0,64.3,5.5A47.4,47.4,0,0,1,1009.7,1574.2Z"/><path class="cls-12" d="M640,1179.9a11.3,11.3,0,0,1-7.8-3.2,11,11,0,0,1,0-15.6l122.7-122.7a11,11,0,0,1,15.6,0,10.9,10.9,0,0,1,0,15.5L647.8,1176.7A11.3,11.3,0,0,1,640,1179.9Z"/><path class="cls-12" d="M762.7,1179.9a11.3,11.3,0,0,1-7.8-3.2L632.2,1053.9a10.9,10.9,0,0,1,0-15.5,11,11,0,0,1,15.6,0l122.7,122.7a11,11,0,0,1,0,15.6A11.3,11.3,0,0,1,762.7,1179.9Z"/><path class="cls-2" d="M651.2,1172.2a10.6,10.6,0,0,1-7.7-3.3,10.9,10.9,0,0,1,0-15.5l122.7-122.7a11,11,0,0,1,15.5,15.5L659,1168.9A10.8,10.8,0,0,1,651.2,1172.2Z"/><path class="cls-2" d="M774,1172.2a10.7,10.7,0,0,1-7.8-3.3L643.5,1046.2a11,11,0,0,1,15.5-15.5l122.7,122.7a10.9,10.9,0,0,1,0,15.5A10.6,10.6,0,0,1,774,1172.2Z"/><path class="cls-11" d="M1062.8,1393.2H889.3a11,11,0,0,1,0-22h173.5a11,11,0,0,1,0,22Z"/><path class="cls-2" d="M1074.1,1385.5H900.5a11,11,0,0,1,0-22h173.6a11,11,0,0,1,0,22Z"/><path class="cls-13" d="M979,927.7a11,11,0,0,1-11-11V743.1a11,11,0,1,1,22,0V916.7A11,11,0,0,1,979,927.7Z"/><path class="cls-11" d="M1065.7,840.9H892.2a11,11,0,0,1,0-22h173.5a11,11,0,0,1,0,22Z"/><path class="cls-12" d="M1340.4,1115.6H1166.9a11,11,0,0,1,0-22h173.5a11,11,0,0,1,0,22Z"/><path class="cls-12" d="M1253.7,1058.4a39.1,39.1,0,1,1,39-39A39.1,39.1,0,0,1,1253.7,1058.4Zm0-56.1a17.1,17.1,0,1,0,17,17.1A17.2,17.2,0,0,0,1253.7,1002.3Z"/><path class="cls-12" d="M1253.7,1228.9a39,39,0,1,1,39-39A39.1,39.1,0,0,1,1253.7,1228.9Zm0-56.1a17.1,17.1,0,1,0,17,17.1A17.2,17.2,0,0,0,1253.7,1172.8Z"/><path class="cls-2" d="M1351.7,1107.9H1178.1a11,11,0,0,1,0-22h173.6a11,11,0,1,1,0,22Z"/><path class="cls-2" d="M1264.9,1050.6a39,39,0,1,1,39-39A39.1,39.1,0,0,1,1264.9,1050.6Zm0-56a17.1,17.1,0,1,0,17,17A17,17,0,0,0,1264.9,994.6Z"/><path class="cls-2" d="M1264.9,1221.2a39.1,39.1,0,1,1,39-39.1A39.1,39.1,0,0,1,1264.9,1221.2Zm0-56.1a17.1,17.1,0,1,0,17,17A17,17,0,0,0,1264.9,1165.1Z"/><path class="cls-2" d="M990.2,920a11,11,0,0,1-11-11V735.4a11,11,0,1,1,22,0V909A11,11,0,0,1,990.2,920Z"/><path class="cls-2" d="M1077,833.2H903.4a11,11,0,1,1,0-22H1077a11,11,0,0,1,0,22Z"/><rect class="cls-10" height="176.64" rx="26.6" ry="26.6" transform="translate(-193.6 981.5) rotate(-45)" width="53.2" x="1061.4" y="636.1"/><rect class="cls-10" height="102.84" rx="26.6" ry="26.6" transform="translate(941.7 -566.1) rotate(45)" width="53.2" x="1127.7" y="802.3"/><rect class="cls-14" height="102.84" rx="26.6" ry="26.6" transform="translate(1068.7 -259.7) rotate(45)" width="53.2" x="821.3" y="1108.7"/><rect class="cls-10" height="78.31" rx="26.6" ry="26.6" transform="translate(-601.5 1182.8) rotate(-45)" width="53.2" x="1100.4" y="1278.3"/><rect class="cls-10" height="146.29" rx="26.6" ry="26.6" transform="translate(1341.6 -371) rotate(45)" width="53.2" x="1092" y="1360.9"/><rect class="cls-14" height="78.31" rx="26.6" ry="26.6" transform="translate(-323 1298.2) rotate(-45)" width="53.2" x="1379" y="999.9"/><rect class="cls-14" height="78.31" rx="26.6" ry="26.6" transform="translate(-482 894.4) rotate(-45)" width="53.2" x="812.1" y="989.9"/><rect class="cls-14" height="146.29" rx="26.6" ry="26.6" transform="translate(1226.4 -649.5) rotate(45)" width="53.2" x="1370.6" y="1082.5"/></svg>